<?xml version="1.0" standalone="no"?>
<!DOCTYPE svg PUBLIC "-//W3C//DTD SVG 20010904//EN" "http://www.w3.org/TR/2001/REC-SVG-20010904/DTD/svg10.dtd">
<!-- Created using Karbon, part of Calligra: http://www.calligra.org/karbon -->
<svg xmlns="http://www.w3.org/2000/svg" xmlns:xlink="http://www.w3.org/1999/xlink" width="244.936pt" height="54.888pt">
<defs/>
<g id="Layer_3">
  <path id="shape0" transform="matrix(1 0 0 1 56.84 13)" fill="#e34b5f" d="M19.16 36.94C19.1685 37.8695 18.809 38.7646 18.16 39.43L2.4 55.2C1.99572 55.5986 1.39178 55.7159 0.867687 55.4976C0.343593 55.2792 0.00160524 54.7678 0 54.2L7.10543e-15 18.87L18.98 0L19.16 0Z"/>
  <path id="shape1" transform="matrix(1 0 0 1 37.67 -0.00596781)" fill="#e7ce9c" d="M25.79 0.415968C25.5253 0.149714 25.1654 2.25514e-17 24.79 0C24.4146 -2.34188e-17 24.0547 0.149714 23.79 0.415968L0.33 23.866L0 23.866L0 50.326L0.33 51.006L19.17 32.206L38.33 13.006Z"/>
  <path id="shape2" transform="matrix(1 0 0 1 -0.000147549 13)" fill="#1e7889" d="M0.000147549 36.94C-0.00835747 37.8695 0.351125 38.7646 1.00015 39.43L16.8001 55.2C17.2044 55.5986 17.8084 55.7159 18.3325 55.4976C18.8566 55.2792 19.1985 54.7678 19.2001 54.2L19.2001 18.87L0.220148 0L0.000147549 0Z"/>
  <path id="shape3" transform="matrix(1 0 0 1 4.44089e-15 -0.00596781)" fill="#97baa6" d="M14.57 0.415968C14.3053 0.149714 13.9454 1.89952e-16 13.57 0C13.1946 -1.89952e-16 12.8347 0.149714 12.57 0.415968L0 13.006L19.2 32.206L38 51.006L38 23.866Z"/>
  <path id="shape4" transform="matrix(1 0 0 1 99.64 14.5203)" fill="#000000" d="M0 35.9097L0 0.659701L9.36 0.659701L9.36 5.3897C11.2733 1.92341 14.9844 -0.160645 18.94 0.00970125C23.0077 -0.113966 26.7952 2.07414 28.72 5.6597C32.4 1.7897 35.22 0.00970125 39.62 0.00970125C47.56 0.00970125 52.03 4.4697 52.03 12.6797L52.03 35.9097L41.95 35.9097L41.95 16.8097C41.95 11.8897 40.9 9.6497 37.03 9.6497C33.16 9.6497 31.03 12.0797 31.03 16.8097L31.03 35.9097L20.81 35.9097L20.81 16.8097C20.81 11.8897 19.76 9.6497 15.89 9.6497C12.02 9.6497 9.89 12.0797 9.89 16.8097L9.89 35.9097Z"/>
  <path id="shape5" transform="matrix(1 0 0 1 157.479 14.2453)" fill="#000000" d="M5.43091 5.52465C10.7003 0.196336 18.6516 -1.45158 25.6046 1.34361C32.5576 4.1388 37.1558 10.8317 37.2709 18.3247C37.4028 23.2893 35.4776 28.0878 31.9509 31.5847C28.4284 35.1999 23.5677 37.1978 18.5209 37.1047C13.4683 37.2444 8.60412 35.1827 5.19091 31.4547C1.81767 27.9731 -0.0471328 23.3021 0.00090562 18.4547C-0.00356808 13.5894 1.95405 8.92791 5.43091 5.52465ZM18.6309 27.2547C23.3273 27.1617 27.0601 23.2811 26.9709 18.5847C26.7904 14.0259 22.9803 10.4583 18.4196 10.5775C13.8588 10.6967 10.2403 14.4584 10.2981 19.0203C10.3559 23.5823 14.0686 27.2511 18.6309 27.2547Z"/>
  <path id="shape6" transform="matrix(1 0 0 1 200.58 14.53)" fill="#000000" d="M0 35.9L0 0.65L9.85 0.65L9.72 5.38C11.89 1.84 15.17 0 19.83 0C27.12 0 31.83 4.6 31.83 12.67L31.83 35.9L21.42 35.9L21.42 16.8C21.42 11.88 20.37 9.64 16.37 9.64C12.37 9.64 10.13 12.07 10.13 16.8L10.13 35.9Z"/>
  <path id="shape7" transform="matrix(1 0 0 1 268.949 14.2453)" fill="#000000" d="M5.39091 5.52465C10.6603 0.196336 18.6116 -1.45158 25.5646 1.34361C32.5176 4.1388 37.1158 10.8317 37.2309 18.3247C37.3628 23.2893 35.4376 28.0878 31.9109 31.5847C28.3962 35.1861 23.5524 37.1793 18.5209 37.0947C13.4683 37.2344 8.60412 35.1727 5.19091 31.4447C1.81767 27.9631 -0.0471328 23.2921 0.00090562 18.4447C-0.0114132 13.5887 1.93122 8.93215 5.39091 5.52465ZM18.5809 27.2547C23.2773 27.1617 27.0101 23.2811 26.9209 18.5847C26.7404 14.0259 22.9303 10.4583 18.3696 10.5775C13.8088 10.6967 10.1903 14.4584 10.2481 19.0203C10.3059 23.5823 14.0186 27.2511 18.5809 27.2547Z"/>
  <path id="shape8" transform="matrix(1 0 0 1 239 15.18)" fill="#000000" d="M0 35.25L0 27.9L14.46 9.12L0 9.12L0 0L26.19 0L26.19 8.34L13.39 26.13L26.45 26.13L26.45 35.25Z"/>
 </g>
</svg>
