<?xml version="1.0" encoding="utf-8"?>
<!-- Generator: Adobe Illustrator 15.0.2, SVG Export Plug-In . SVG Version: 6.00 Build 0)  -->
<!DOCTYPE svg PUBLIC "-//W3C//DTD SVG 1.1//EN" "http://www.w3.org/Graphics/SVG/1.1/DTD/svg11.dtd">
<svg version="1.1" id="svg3234" xmlns:svg="http://www.w3.org/2000/svg"
	 xmlns="http://www.w3.org/2000/svg" xmlns:xlink="http://www.w3.org/1999/xlink" x="0px" y="0px" width="200px" height="53.292px"
	 viewBox="0 -0.976 200 53.292" enable-background="new 0 -0.976 200 53.292" xml:space="preserve">
<g id="layer1" transform="translate(-307.85469,-514.35656)">
	<path id="path3996" fill="#1A5CA3" stroke="#FFFFFF" stroke-width="0.0787" stroke-miterlimit="11.474" d="M323.121,557.495
		c-4.001,0-7.241,2.29-8.805,3.913c0,0-3.806,3.772-6.383,5.078c-0.113,0.062-0.111,0.187,0.046,0.187h23.294
		c4.605,0,6.77-1.56,9.503-4.007c0,0,3.979-3.698,6.708-4.892c0.275-0.104,0.21-0.279,0-0.279H323.121z M363.139,557.495
		c-4.001,0-7.238,2.29-8.805,3.913c0,0-3.805,3.772-6.382,5.078c-0.114,0.062-0.112,0.187,0.046,0.187h23.34
		c4.604,0,6.771-1.56,9.503-4.007c0,0,3.935-3.698,6.662-4.892c0.275-0.104,0.255-0.279,0.046-0.279H363.139z M403.203,557.495
		c-4,0-7.239,2.29-8.805,3.913c0,0-3.806,3.772-6.383,5.078c-0.112,0.062-0.109,0.187,0.048,0.187h23.34
		c4.604,0,6.723-1.56,9.457-4.007c0,0,3.979-3.698,6.707-4.892c0.276-0.104,0.256-0.279,0.047-0.279H403.203z M443.221,557.495
		c-3.999,0-7.192,2.29-8.759,3.913c0,0-3.852,3.772-6.43,5.078c-0.112,0.062-0.109,0.187,0.048,0.187h23.339
		c4.605,0,6.771-1.56,9.504-4.007c0,0,3.982-3.698,6.709-4.892c0.277-0.104,0.208-0.279,0-0.279H443.221z M483.284,557.495
		c-4,0-7.241,2.29-8.805,3.913c0,0-3.808,3.772-6.384,5.078c-0.114,0.062-0.11,0.187,0.046,0.187h23.342
		c4.604,0,6.768-1.56,9.504-4.007c0,0,3.936-3.698,6.66-4.892c0.275-0.104,0.258-0.279,0.047-0.279H483.284z"/>
	<path id="path4006" fill="#EE333E" stroke="#FFFFFF" stroke-width="0.03" stroke-miterlimit="3.864" d="M404.648,513.192
		c-8.515,0-16.818,2.528-16.818,10.994c0,14.661,25.575,6.916,25.575,15.886c0,2.924-4.535,4.1-8.198,4.1
		c-6.58,0-11.115-0.979-16.864-4.426v7.36c4.286,1.413,10.117,2.097,16.445,2.097c8.833,0,17.097-2.281,17.097-10.948
		c0-15.308-25.576-8.43-25.576-15.932c0-3.021,4.104-4.053,7.688-4.053c6.031,0,12.542,1.765,16.119,5.077v-7.826
		C415.487,514.06,409.341,513.192,404.648,513.192z M449.836,513.285c-15.359,0-25.529,7.383-25.529,18.634
		c0,10.326,9.334,17.237,23.293,17.237c4.522,0,8.558-0.593,13.276-1.725v-8.712c-3.335,3.524-7.299,4.938-11.553,4.938
		c-8.244,0-13.883-5.136-13.883-12.532c0-7.295,5.846-12.625,14.021-12.625c4.455,0,8.026,1.62,10.901,4.427v-8.712
		C457.373,513.599,453.624,513.285,449.836,513.285z M485.659,513.285c-13.235,0-22.594,7.619-22.594,18.354
		c0,10.531,8.404,17.518,20.918,17.518c13.295,0,22.453-7.428,22.453-18.215C506.439,520.358,498.111,513.285,485.659,513.285z
		 M309.239,514.356v8.246c2.877-2.23,8.894-3.071,15.466-3.121v22.5c0,3.272-0.289,4.204-1.677,5.917h12.998
		c-1.459-1.713-1.678-2.645-1.678-5.917v-22.688c5.696,0.05,12.496,1.077,15.373,3.31v-8.246H309.239L309.239,514.356z
		 M353.216,514.356c1.36,1.712,1.63,2.688,1.63,5.963v21.662c0,3.272-0.246,4.255-1.537,5.917h31.399v-8.152
		c-4.308,3.067-12.507,3.078-15.839,3.027h-4.565v-9.363h3.354c2.273,0,6.374,0.269,8.758,0.979v-6.987
		c-2.35,0.755-6.492,0.979-8.758,0.979h-3.354v-8.896h4.565c4.079,0,11.173,0.844,13.836,3.075v-8.199h-29.489V514.356z
		 M484.777,518.363c6.932,0,11.506,5.735,11.506,12.811c0,7.076-4.574,12.812-11.506,12.812c-7.045,0-11.556-5.736-11.556-12.812
		C473.222,524.099,477.732,518.363,484.777,518.363z"/>
</g>
</svg>
